<?xml version="1.0" encoding="utf-8"?>
<!-- Generator: Adobe Illustrator 24.0.1, SVG Export Plug-In . SVG Version: 6.00 Build 0)  -->
<svg version="1.1" id="Layer_1" xmlns="http://www.w3.org/2000/svg" xmlns:xlink="http://www.w3.org/1999/xlink" x="0px" y="0px"
	 viewBox="0 0 476 496" style="enable-background:new 0 0 476 496;" xml:space="preserve">
<style type="text/css">
	.st0{fill:#FF8017;}
</style>
<g>
	<path class="st0" d="M316.29,347.57c-1.39,1.24-2.61,2.35-3.6,3.23c-5.75-5.87-11.4-11.63-17.86-18.21
		c3.06-2.41,6.84-5.39,10.27-8.1c-2.1-5.01-3.95-2.69-5.78-1.44c-13.07,8.95-27.4,11.6-42.85,8.43c-1.94-0.4-3.99-0.91-5.64-1.93
		c-6.88-4.25-14.4-4.24-22.12-4.21c-36.67,0.14-73.34,0.06-110.01,0.06c-1.97,0-3.93,0-6.19,0c-0.14-1.89-0.34-3.34-0.34-4.78
		c-0.02-22.16,0.08-44.33-0.1-66.49c-0.03-3.77,1.31-5.03,4.77-6.01c15.81-4.48,31.53-9.3,47.31-14c0-11.04,0-21.78,0-33.34
		c-8.66,6.09-16.78,11.8-25.28,17.79c-2.15-2.79-4.22-5.48-6.51-8.45c14.02-9.71,27.74-19.1,41.35-28.65
		c9.95-6.98,19.67-14.3,29.7-21.18c3.51-2.41,5.45-4.95,4.85-9.37c-0.39-2.92-0.07-5.93-0.07-9.22c-2.68-0.2-4.94-0.37-7.59-0.56
		c0-3.29,0-6.53,0-10.26c2.26-0.21,4.65-0.42,7.32-0.67c0.18-2.59,0.35-5.02,0.54-7.74c3.27,0,6.37,0,9.89,0
		c0.24,2.5,0.49,5.05,0.76,7.79c2.47,0.19,4.74,0.36,7.31,0.56c0,3.45,0,6.69,0,10.28c-2.37,0.17-4.64,0.34-7.63,0.56
		c0,4.45-0.28,8.9,0.17,13.28c0.14,1.38,2.09,2.79,3.5,3.78c22.57,15.97,45.19,31.88,67.79,47.81c1.34,0.95,2.64,1.95,4.23,3.13
		c-2.14,2.85-4.1,5.45-6.32,8.39c-8.39-5.89-16.52-11.61-25.19-17.7c0,8.17,0,15.83,0,23.62c4.04,0.42,8.14,0.73,12.21,1.28
		c40.69,5.53,60.41,49.88,37.2,83.67c-1.41,2.06-3.03,3.83,1.18,5.53c2.99-3.33,6.1-6.79,8.92-9.93
		c6.05,6.07,11.75,11.8,17.65,17.72c-0.71,0.85-1.85,2.21-2.99,3.58c0.58-0.5,1.17-1,1.75-1.5c6.49,7.39,12.74,15.01,19.53,22.11
		c7.09,7.42,7.5,14.15,0.49,21.26c-7.49,7.6-14.19,7.74-21.55,0.43c-6.62-6.58-13.21-13.18-19.83-19.77
		C317.29,348.15,316.98,348.01,316.29,347.57z M225.31,278.08c-0.19,23.47,19.17,43.28,42.47,43.46
		c23.57,0.18,43.38-19.7,43.53-43.68c0.15-23.66-18.96-43.06-42.59-43.25C244.55,234.43,225.51,253.49,225.31,278.08z
		 M192.57,314.44c0-8.22-0.11-16.01,0.02-23.8c0.21-12.36,7.85-20.7,19.89-22.37c1.41-0.2,3.34-1.93,3.75-3.33
		c5.17-17.56,15.92-30.01,32.84-37.21c1.48-0.63,3.15-2.92,3.2-4.49c0.3-9.15,0.25-18.32,0.06-27.48c-0.03-1.56-0.84-3.7-2.03-4.56
		c-11.98-8.7-24.11-17.2-36.31-25.83c-11.79,8.49-23.35,16.94-35.06,25.17c-2.64,1.85-3.47,3.87-3.46,7.02
		c0.11,37.32,0.07,74.64,0.07,111.96c0,1.59,0,3.18,0,4.92C181.44,314.44,186.58,314.44,192.57,314.44z M122.72,314.21
		c14.23,0,27.79,0,41.31,0c0-23.04,0-45.71,0-68.71c-13.18,3.86-25.95,7.55-38.66,11.43c-1.08,0.33-2.52,1.93-2.53,2.95
		C122.68,277.84,122.72,295.81,122.72,314.21z M212.66,279.41c-4.53,0-8.99,2.89-9.41,8.57c-0.63,8.7-0.17,17.48-0.17,26.35
		c7.27,0,14.2,0,21.54,0C220.63,302.64,216.72,291.24,212.66,279.41z M324.13,338.71c7.77,7.9,15.41,15.66,23.25,23.63
		c1.19-2.12,6.47-2.79,2.92-6.62c-6.84-7.39-14.18-14.31-21.79-21.9C326.8,335.74,325.3,337.41,324.13,338.71z M323.34,319.87
		c-4.57,4.56-8.91,8.9-13.26,13.23c0.03,0.46,0.07,0.92,0.1,1.39c1.27-0.1,2.91,0.27,3.75-0.38
		C322.47,327.45,325.64,322.73,323.34,319.87z"/>
	<path class="st0" d="M266.2,255.07c0-3.32,0-6.43,0-9.57c10.3-2.77,28.65,7.36,32.3,21.83c-3.1,1.3-6.25,2.62-9.34,3.92
		C282.45,260.5,278.17,257.47,266.2,255.07z"/>
	<path class="st0" d="M212.96,231.46c-11.76-0.01-22.05-10.31-21.97-21.98c0.09-11.5,10.17-21.64,21.7-21.81
		c11.62-0.18,22.05,10.11,22.15,21.86C234.95,221.36,224.87,231.47,212.96,231.46z M224,209.12c0.07-6.09-4.89-11.17-10.95-11.22
		c-5.87-0.05-11.16,5.17-11.21,11.07c-0.05,5.89,5.17,11.25,11,11.31C218.64,220.33,223.93,215.04,224,209.12z"/>
	<path class="st0" d="M138.03,271.71c3.33,0,6.42,0,10.28,0c0,7.79,0.07,15.52-0.12,23.24c-0.02,0.76-1.6,1.98-2.56,2.11
		c-2.41,0.31-4.89,0.1-7.6,0.1C138.03,288.37,138.03,280.16,138.03,271.71z"/>
</g>
</svg>
