<svg viewBox="0 0 981 1067.106" xmlns="http://www.w3.org/2000/svg"><path d="M215.11 1045.333h-44.443v-36.622l-128.444-160C15.923 816.24 0 774.43 0 728.897v-.195.01-324.266c0-59.28 48.056-107.333 107.334-107.333s107.333 48.056 107.333 107.334v298.222h-44.444V404.444c0-34.733-28.156-62.89-62.89-62.89s-62.888 28.157-62.888 62.89v324.32c0 34.94 12.22 67.028 32.616 92.222l-.215-.275 138.267 172.357zm297.78-1.778h-44.445v-260.89c-.025-18.663-7.67-35.537-19.992-47.68l-.008-.008-118.89-116.222c-12.136-12.138-28.903-19.645-47.424-19.645h-.876c-36.82 0-66.668 29.85-66.668 66.668 0 18.684 7.686 35.572 20.07 47.677l.012.012 58.667 58.667-31.422 31.422-58.444-58.444c-20.226-20.18-32.74-48.085-32.74-78.91 0-61.565 49.91-111.473 111.473-111.473 30.738 0 58.57 12.44 78.735 32.56h-.002L479.514 703.2c20.545 20.248 33.287 48.365 33.333 79.458v.01zm297.332 1.778h-44.444v-52.267L904 820.756c20.21-24.93 32.445-57.037 32.445-92.003v-.28.015-324.044c0-34.61-28.057-62.667-62.667-62.667s-62.667 28.057-62.667 62.667v298.222h-44.443V404.444c.473-58.918 48.07-106.562 106.925-107.11h.274c58.89.497 106.5 48.09 107.022 106.927v324.314c0 45.557-15.94 87.39-42.547 120.227l.28-.356-128.4 160zm-297.333-1.778h-44.445v-260.89c.054-31.086 12.795-59.186 33.32-79.408l.014-.013 118.577-116.356c20.185-20.09 48.02-32.51 78.756-32.51 61.66 0 111.645 49.984 111.645 111.644 0 30.924-12.573 58.91-32.885 79.13l-.004.003-58.58 58.4-31.42-31.422 58.843-58.844c12.35-12.165 20-29.07 20-47.76v-.254.013c0-36.82-29.848-66.668-66.667-66.668h-.49c-.175-.002-.382-.003-.59-.003-18.516 0-35.278 7.507-47.408 19.646L532.89 734.71c-12.328 12.15-19.974 29.024-20 47.684v.005zm0-553.778h-44.445V21.333h44.444zm148-290.222H320.444V155.11H660.89z"/></svg>